<svg width="247" height="35" viewBox="0 0 247 35" fill="none" xmlns="http://www.w3.org/2000/svg">
<g filter="url(#filter0_d)">
<path d="M72.3409 11.6421C72.0171 9.23013 70.0739 7.73865 66.7671 7.73865C63.4176 7.73865 61.2102 9.28979 61.2188 11.8125C61.2102 13.7727 62.446 15.0426 65.0028 15.554L67.2699 16.0057C68.4119 16.2358 68.9318 16.6534 68.9489 17.3097C68.9318 18.0852 68.0881 18.6392 66.8182 18.6392C65.5227 18.6392 64.6619 18.0852 64.4403 17.0199L60.8693 17.2074C61.2102 19.7131 63.3409 21.2557 66.8097 21.2557C70.2017 21.2557 72.6307 19.5256 72.6392 16.9432C72.6307 15.0512 71.3949 13.9176 68.8551 13.3977L66.4858 12.9205C65.2671 12.6563 64.8153 12.2387 64.8239 11.608C64.8153 10.8239 65.7017 10.3125 66.8267 10.3125C68.0881 10.3125 68.8381 11.0029 69.0171 11.8466L72.3409 11.6421Z" fill="#F8F8F8"/>
<path d="M74.9254 25.9091H78.5561V18.9034H78.6669C79.1698 19.9943 80.2692 21.2131 82.3828 21.2131C85.3658 21.2131 87.6925 18.8523 87.6925 14.4716C87.6925 9.97161 85.2635 7.73865 82.3913 7.73865C80.201 7.73865 79.1527 9.04263 78.6669 10.108H78.505V7.9091H74.9254V25.9091ZM78.4794 14.4546C78.4794 12.1193 79.468 10.6279 81.2323 10.6279C83.0305 10.6279 83.9851 12.1875 83.9851 14.4546C83.9851 16.7387 83.0135 18.3239 81.2323 18.3239C79.4851 18.3239 78.4794 16.7898 78.4794 14.4546Z" fill="#F8F8F8"/>
<path d="M93.8459 21.2472C95.7805 21.2472 97.0334 20.4034 97.6726 19.1847H97.7749V21H101.218V12.1705C101.218 9.05115 98.576 7.73865 95.6612 7.73865C92.5249 7.73865 90.4624 9.23865 89.9595 11.625L93.3175 11.8977C93.5646 11.0284 94.3402 10.3892 95.6442 10.3892C96.88 10.3892 97.5874 11.0114 97.5874 12.0852V12.1364C97.5874 12.9801 96.6925 13.0909 94.4169 13.3125C91.826 13.5512 89.4993 14.4205 89.4993 17.3438C89.4993 19.9347 91.3487 21.2472 93.8459 21.2472ZM94.8857 18.7415C93.7692 18.7415 92.968 18.2216 92.968 17.2244C92.968 16.2017 93.8118 15.6989 95.0902 15.5199C95.8828 15.4091 97.1783 15.2216 97.6129 14.9318V16.321C97.6129 17.6932 96.4794 18.7415 94.8857 18.7415Z" fill="#F8F8F8"/>
<path d="M109.95 21.2557C113.435 21.2557 115.626 19.2102 115.796 16.2017H112.37C112.157 17.5994 111.237 18.3835 109.992 18.3835C108.296 18.3835 107.197 16.9602 107.197 14.4546C107.197 11.983 108.305 10.5682 109.992 10.5682C111.322 10.5682 112.174 11.446 112.37 12.75H115.796C115.643 9.72445 113.35 7.73865 109.933 7.73865C105.961 7.73865 103.506 10.4915 103.506 14.5057C103.506 18.4858 105.918 21.2557 109.95 21.2557Z" fill="#F8F8F8"/>
<path d="M124.087 21.2557C127.325 21.2557 129.507 19.679 130.018 17.25L126.661 17.0284C126.294 18.0256 125.357 18.5455 124.146 18.5455C122.331 18.5455 121.18 17.3438 121.18 15.3921V15.3835H130.095V14.3864C130.095 9.93752 127.402 7.73865 123.942 7.73865C120.089 7.73865 117.592 10.4744 117.592 14.5142C117.592 18.6648 120.055 21.2557 124.087 21.2557ZM121.18 13.1335C121.257 11.6421 122.391 10.4489 124.001 10.4489C125.578 10.4489 126.669 11.5739 126.678 13.1335H121.18Z" fill="#F8F8F8"/>
<path d="M139.428 7.9091H136.964V4.77274H133.334V7.9091H131.544V10.6364H133.334V17.4546C133.317 20.0199 135.064 21.2898 137.697 21.179C138.635 21.1449 139.3 20.9574 139.666 20.8381L139.095 18.1364C138.916 18.1705 138.533 18.2557 138.192 18.2557C137.467 18.2557 136.964 17.983 136.964 16.9773V10.6364H139.428V7.9091Z" fill="#F8F8F8"/>
<path d="M141.793 21H145.423V13.5938C145.423 11.983 146.599 10.875 148.202 10.875C148.705 10.875 149.395 10.9602 149.736 11.071V7.84945C149.412 7.77274 148.96 7.7216 148.594 7.7216C147.128 7.7216 145.926 8.57388 145.449 10.1932H145.313V7.9091H141.793V21Z" fill="#F8F8F8"/>
<path d="M154.971 21.2472C156.906 21.2472 158.158 20.4034 158.798 19.1847H158.9V21H162.343V12.1705C162.343 9.05115 159.701 7.73865 156.786 7.73865C153.65 7.73865 151.587 9.23865 151.085 11.625L154.442 11.8977C154.69 11.0284 155.465 10.3892 156.769 10.3892C158.005 10.3892 158.712 11.0114 158.712 12.0852V12.1364C158.712 12.9801 157.817 13.0909 155.542 13.3125C152.951 13.5512 150.624 14.4205 150.624 17.3438C150.624 19.9347 152.474 21.2472 154.971 21.2472ZM156.011 18.7415C154.894 18.7415 154.093 18.2216 154.093 17.2244C154.093 16.2017 154.937 15.6989 156.215 15.5199C157.008 15.4091 158.303 15.2216 158.738 14.9318V16.321C158.738 17.6932 157.604 18.7415 156.011 18.7415Z" fill="#F8F8F8"/>
<path d="M176.896 7.9091H173.052L170.342 17.2756H170.205L167.487 7.9091H163.651L168.228 21H172.319L176.896 7.9091Z" fill="#F8F8F8"/>
<path d="M184.274 21.2557C187.513 21.2557 189.695 19.679 190.206 17.25L186.848 17.0284C186.482 18.0256 185.544 18.5455 184.334 18.5455C182.518 18.5455 181.368 17.3438 181.368 15.3921V15.3835H190.283V14.3864C190.283 9.93752 187.59 7.73865 184.129 7.73865C180.277 7.73865 177.78 10.4744 177.78 14.5142C177.78 18.6648 180.243 21.2557 184.274 21.2557ZM181.368 13.1335C181.445 11.6421 182.578 10.4489 184.189 10.4489C185.766 10.4489 186.857 11.5739 186.865 13.1335H181.368Z" fill="#F8F8F8"/>
<path d="M196.283 3.54547H192.652V21H196.283V3.54547Z" fill="#F8F8F8"/>
<path d="M199.191 21H202.822V7.9091H199.191V21ZM201.015 6.2216C202.097 6.2216 202.984 5.3949 202.984 4.3807C202.984 3.37501 202.097 2.54831 201.015 2.54831C199.941 2.54831 199.055 3.37501 199.055 4.3807C199.055 5.3949 199.941 6.2216 201.015 6.2216Z" fill="#F8F8F8"/>
<path d="M209.361 13.4318C209.369 11.7443 210.375 10.7557 211.841 10.7557C213.298 10.7557 214.176 11.7102 214.168 13.3125V21H217.798V12.6648C217.798 9.61365 216.009 7.73865 213.281 7.73865C211.338 7.73865 209.932 8.6932 209.344 10.2188H209.19V7.9091H205.73V21H209.361V13.4318Z" fill="#F8F8F8"/>
<path d="M226.558 26.1818C230.299 26.1818 232.958 24.4773 232.958 21.1279V7.9091H229.353V10.108H229.217C228.731 9.04263 227.665 7.73865 225.475 7.73865C222.603 7.73865 220.174 9.97161 220.174 14.429C220.174 18.7841 222.535 20.8125 225.484 20.8125C227.572 20.8125 228.739 19.7642 229.217 18.6818H229.37V21.0767C229.37 22.875 228.219 23.5739 226.643 23.5739C225.04 23.5739 224.231 22.875 223.933 22.0824L220.575 22.5341C221.009 24.5966 223.029 26.1818 226.558 26.1818ZM226.634 18.0852C224.853 18.0852 223.881 16.6705 223.881 14.4119C223.881 12.1875 224.836 10.6279 226.634 10.6279C228.398 10.6279 229.387 12.1193 229.387 14.4119C229.387 16.7216 228.381 18.0852 226.634 18.0852Z" fill="#F8F8F8"/>
<path d="M240.571 21.2216C241.662 21.2216 242.608 20.3097 242.616 19.1761C242.608 18.0597 241.662 17.1477 240.571 17.1477C239.446 17.1477 238.517 18.0597 238.526 19.1761C238.517 20.3097 239.446 21.2216 240.571 21.2216Z" fill="#FF57B2"/>
<path d="M13.881 0.55307L4 12.0576L13.881 23.5601L16.2174 19.8829L9.55897 12.0556L16.2174 4.2283L13.881 0.55307ZM18.2051 23.2854H22.5415L29.4359 0.764989H25.0974L18.2051 23.2854ZM34.119 0.55307L31.7826 4.23027L38.441 12.0576L31.7826 19.8848L34.119 23.562L44 12.0595L34.119 0.55307Z" fill="#FF57B2"/>
</g>
<defs>
<filter id="filter0_d" x="0" y="0.55307" width="246.616" height="33.6288" filterUnits="userSpaceOnUse" color-interpolation-filters="sRGB">
<feFlood flood-opacity="0" result="BackgroundImageFix"/>
<feColorMatrix in="SourceAlpha" type="matrix" values="0 0 0 0 0 0 0 0 0 0 0 0 0 0 0 0 0 0 127 0" result="hardAlpha"/>
<feOffset dy="4"/>
<feGaussianBlur stdDeviation="2"/>
<feComposite in2="hardAlpha" operator="out"/>
<feColorMatrix type="matrix" values="0 0 0 0 0 0 0 0 0 0 0 0 0 0 0 0 0 0 0.25 0"/>
<feBlend mode="normal" in2="BackgroundImageFix" result="effect1_dropShadow"/>
<feBlend mode="normal" in="SourceGraphic" in2="effect1_dropShadow" result="shape"/>
</filter>
</defs>
</svg>
